<?xml version="1.0" encoding="utf-8"?>
<!DOCTYPE svg PUBLIC "-//W3C//DTD SVG 1.1//EN" "http://www.w3.org/Graphics/SVG/1.1/DTD/svg11.dtd">
<svg xmlns="http://www.w3.org/2000/svg" x="0px" y="0px" width="10px" height="10px">
<path fill="#76b900" d="M9.719,0L6.531,0.003c-0.155,0-0.281,0.126-0.281,0.281v0.65c0,0.155,0.126,0.281,0.281,0.281c0.002,0,0.004,0,0.006,0
	l1.438-0.053l0.04,0.041L2.569,6.65c-0.092,0.091-0.092,0.24,0,0.331c0,0,0,0,0,0.001l0.449,0.449c0.091,0.091,0.24,0.092,0.332,0
	c0,0,0,0,0,0l5.446-5.447l0.041,0.04L8.784,3.463C8.78,3.618,8.904,3.747,9.059,3.75c0.002,0,0.004,0,0.006,0h0.65
	c0.155,0,0.281-0.126,0.281-0.281L10,0.281C10,0.126,9.874,0,9.719,0z M8.438,5.625H8.125c-0.172,0-0.313,0.14-0.313,0.313v3.008
	c0,0.065-0.052,0.117-0.117,0.117H1.055c-0.065,0-0.117-0.052-0.117-0.117V2.305c0-0.065,0.052-0.117,0.117-0.117h3.008
	c0.172,0,0.313-0.14,0.313-0.313V1.563c0-0.172-0.14-0.313-0.313-0.313H0.937C0.42,1.25,0,1.67,0,2.188v6.875
	C0,9.58,0.42,10,0.937,10l0,0h6.875C8.33,10,8.75,9.58,8.75,9.063l0,0V5.938C8.75,5.765,8.61,5.625,8.438,5.625z"/>
</svg>
